<svg width="20" height="20" viewBox="0 0 704 806" fill="none" xmlns="http://www.w3.org/2000/svg">
<path d="M125.333 20.4C114 31.6 81.0667 63.7333 52.4 91.8667L0 143.067V181.467V220H191.733C376.4 220 383.733 220.133 396 222.667C419.733 227.467 439.333 239.733 456.8 260.933C464.4 270 474.667 287.867 474.667 291.733C474.667 292.933 435.6 293.333 311.333 293.333H148V366.667V440L74.4 440.267L0.666667 440.667L0.266667 622.933L0 805.333H38.4H76.8L104.133 777.6C130.8 750.667 177.6 702.8 207.733 671.867L222.667 656.533V585.067V513.467L309.733 512.933C393.2 512.533 397.2 512.4 409.6 509.6C445.6 501.467 472 487.467 497.6 462.8C522.533 438.933 535.733 417.6 546.667 383.333C554 360.533 554.267 360 556.8 360C561.733 360 588.267 350 601.067 343.333C620 333.467 634.133 323.067 649.867 307.333C678 279.467 695.6 246.267 702 209.867C704.533 194.933 704.533 166.267 702 151.2C689.067 77.0667 626.4 15.0667 551.2 2C541.2 0.266665 512.267 -1.3113e-06 342.8 -1.3113e-06H146L125.333 20.4ZM540.667 75.3333C584.533 84.5333 617.067 115.467 626 156.533C628.8 169.2 628.133 194.667 624.667 207.333C615.867 239.2 592.8 267.733 564.4 281.867C559.2 284.533 554.267 286.667 553.6 286.667C552.933 286.667 549.867 279.867 546.667 271.6C539.333 252.533 534.267 242.267 524.267 227.333C497.867 187.333 466.533 162.533 426.933 150.133C402 142.267 404.533 142.4 259.333 142.533C186 142.533 121.467 142.133 115.867 141.6L105.867 140.667L143.067 106.533L180.4 72.2667L355.2 72.6667C512.533 73.0667 531.067 73.3333 540.667 75.3333ZM474 369.6C470 382.667 456.267 401.733 442.4 413.333C430 423.733 420.667 428.933 404.933 434.533L391.333 439.333L307.067 439.733L222.667 440.133V403.333V366.667H348.8H474.8L474 369.6ZM148 569.467V625.733L128.4 646.267C117.467 657.6 101.067 674.8 91.7333 684.4L74.8 702V607.6L74.6667 513.333H111.333H148V569.467Z" fill="#031860"/>
</svg>
